<svg width="200" height="201" viewBox="0 0 200 201" fill="none" xmlns="http://www.w3.org/2000/svg">
<path d="M200 101C200 127.522 189.464 152.957 170.711 171.711C151.957 190.464 126.522 201 100 201C73.4784 201 48.043 190.464 29.2893 171.711C10.5357 152.957 4.00466e-06 127.522 0 101L100 101H200Z" fill="#C8AA40"/>
<path d="M0 100C0 73.4783 10.5357 48.043 29.2893 29.2893C48.043 10.5357 73.4783 2.00233e-06 100 0C126.522 -2.00233e-06 151.957 10.5357 170.711 29.2893C189.464 48.0429 200 73.4783 200 100L100 100H0Z" fill="#66D0F1"/>
<line x1="47.9798" y1="78.0001" x2="147.98" y2="76.99" stroke="black" stroke-width="4"/>
<line x1="73" y1="56" x2="123" y2="56" stroke="black" stroke-width="4"/>
</svg>
