<svg width="299" height="300" viewBox="0 0 299 300" fill="none" xmlns="http://www.w3.org/2000/svg">
<path fill-rule="evenodd" clip-rule="evenodd" d="M60.0015 150H0C0 67.1573 66.7125 0 149.007 0C231.301 0 298.013 67.1573 298.013 150H237.998C237.999 149.833 238 149.667 238 149.5C238 102.832 198.153 65 149 65C99.8467 65 60 102.832 60 149.5C60 149.667 60.0005 149.833 60.0015 150Z" fill="#52ABEC"/>
<path fill-rule="evenodd" clip-rule="evenodd" d="M60.0015 150H0C0 232.843 66.7125 300 149.007 300C231.301 300 298.013 232.843 298.013 150H237.998C237.999 150.167 238 150.333 238 150.5C238 197.168 198.153 235 149 235C99.8467 235 60 197.168 60 150.5C60 150.333 60.0005 150.167 60.0015 150Z" fill="#F2AB22"/>
<rect x="233" y="115" width="23" height="13" fill="black"/>
<rect x="50" y="89" width="23" height="13" fill="black"/>
<rect x="222" y="89" width="23" height="13" fill="black"/>
<rect x="39" y="115" width="23" height="13" fill="black"/>
<path fill-rule="evenodd" clip-rule="evenodd" d="M127.307 145C126.46 147.512 126 150.202 126 153C126 166.807 137.193 178 151 178C164.807 178 176 166.807 176 153C176 150.202 175.54 147.512 174.693 145H170.422C171.439 147.466 172 150.167 172 153C172 164.598 162.598 174 151 174C139.402 174 130 164.598 130 153C130 150.167 130.561 147.466 131.578 145H127.307Z" fill="black"/>
<path fill-rule="evenodd" clip-rule="evenodd" d="M137.013 146H61V150H138.112C137.471 148.763 137.087 147.415 137.013 146ZM163.888 150H239V146H164.987C164.913 147.415 164.529 148.763 163.888 150Z" fill="black"/>
</svg>
