<svg width="217" height="211" viewBox="0 0 217 211" fill="none" xmlns="http://www.w3.org/2000/svg">
<path d="M180.681 65.4774C186.178 76.5708 189.026 88.7889 189 101.17C188.974 113.551 186.074 125.757 180.529 136.827C174.985 147.897 166.946 157.529 157.047 164.965C147.148 172.401 135.658 177.437 123.481 179.678C111.305 181.92 98.7744 181.304 86.8763 177.88C74.9782 174.456 64.0371 168.317 54.9144 159.947C45.7916 151.577 38.7361 141.203 34.3033 129.643C29.8705 118.083 28.1813 105.651 29.3688 93.3273L42.0149 94.5458C41.016 104.913 42.437 115.37 46.1658 125.094C49.8946 134.818 55.8296 143.545 63.5036 150.586C71.1776 157.627 80.3811 162.791 90.3897 165.671C100.398 168.551 110.939 169.069 121.182 167.184C131.424 165.298 141.09 161.061 149.417 154.807C157.744 148.552 164.506 140.449 169.17 131.137C173.834 121.825 176.273 111.558 176.295 101.143C176.317 90.7281 173.922 80.4504 169.297 71.1187L180.681 65.4774Z" fill="#79ED1E"/>
<path d="M152.101 13.5438C172.011 23.3559 187.977 39.6679 197.36 59.7836C206.743 79.8993 208.982 102.615 203.706 124.175C198.43 145.735 185.955 164.85 168.343 178.36C150.732 191.87 129.038 198.966 106.847 198.476C84.6555 197.986 63.2958 189.939 46.2981 175.664C29.3003 161.389 17.6819 141.742 13.3633 119.97C9.04459 98.1977 12.2842 75.6034 22.5466 55.9217C32.8089 36.24 49.4798 20.649 69.8037 11.7257" stroke="black" stroke-width="5" stroke-dasharray="4 20"/>
<path d="M148.785 20.2712C167.164 29.3285 181.901 44.3857 190.563 62.9541C199.224 81.5224 201.291 102.49 196.421 122.392C191.551 142.294 180.035 159.939 163.779 172.409C147.522 184.88 127.496 191.431 107.012 190.978C86.5281 190.526 66.8115 183.097 51.1213 169.921C35.431 156.744 24.7064 138.608 20.7199 118.511C16.7335 98.4132 19.7239 77.557 29.1968 59.3893C38.6698 41.2215 54.0583 26.8299 72.8188 18.593" stroke="black" stroke-width="20" stroke-dasharray="5 40"/>
</svg>
