<svg width="518" height="481" viewBox="0 0 518 481" fill="none" xmlns="http://www.w3.org/2000/svg">
<path d="M61.8759 240.549L148.661 366.418L247.255 405.832L257.646 480.845L117.378 426.175L0.319312 240.549L61.8759 240.549Z" fill="#D9D9D9"/>
<path d="M456.443 240.549L369.659 366.418L271.064 405.832L260.673 480.845L400.942 426.175L518 240.549L456.443 240.549Z" fill="#D9D9D9"/>
<path d="M61.8429 240.812L148.628 114.943L247.222 75.5291L257.613 0.516073L117.345 55.1865L0.286353 240.812L61.8429 240.812Z" fill="#D9D9D9"/>
<path d="M456.411 240.812L369.626 114.943L271.031 75.529L260.64 0.51601L400.909 55.1865L517.967 240.812L456.411 240.812Z" fill="#D9D9D9"/>
<line y1="-0.5" x2="394.586" y2="-0.5" transform="matrix(0.999953 0.00966638 -0.00608971 0.999981 60.8668 237.908)" stroke="black"/>
<path d="M256.479 210L318 260H200L256.479 210Z" fill="#D9D9D9"/>
<rect width="15.2293" height="38.2017" transform="matrix(0.55029 -0.834974 0.690979 0.722875 182.971 231.553)" fill="#D9D9D9"/>
<rect width="14.9982" height="38.8221" transform="matrix(0.604228 0.796812 -0.639015 0.769194 325.846 218.837)" fill="#D9D9D9"/>
<rect x="241" y="10" width="33" height="61" fill="#D9D9D9"/>
<rect x="241" y="411" width="33" height="61" fill="#D9D9D9"/>
</svg>
